<?xml version="1.0" encoding="utf-8"?>
<svg viewBox="65.72 35.997 369.952 414.451" xmlns="http://www.w3.org/2000/svg" xmlns:bx="https://boxy-svg.com">
  <defs>
    <radialGradient gradientUnits="userSpaceOnUse" cx="320.8" cy="78.4" r="0" id="gradient-1">
      <stop offset="0" style="stop-color: rgba(0, 0, 0, 1)"/>
      <stop offset="1" style="stop-color: rgba(0, 0, 0, 1)"/>
    </radialGradient>
    <radialGradient gradientUnits="userSpaceOnUse" cx="418.099" cy="262.347" r="56.102" id="gradient-2">
      <stop offset="0" style="stop-color: rgba(0, 0, 0, 1)"/>
      <stop offset="1" style="stop-color: rgba(0, 0, 0, 1)"/>
    </radialGradient>
    <radialGradient gradientUnits="userSpaceOnUse" cx="520.5" cy="78.1" r="0" id="gradient-3">
      <stop offset="0" style="stop-color: rgba(0, 0, 0, 1)"/>
      <stop offset="1" style="stop-color: rgba(0, 0, 0, 1)"/>
    </radialGradient>
  </defs>
  <g transform="matrix(1, 0, 0, 1, 8.041379, 6.124137)">
    <path style="paint-order: fill; stroke: rgba(0, 0, 0, 0); fill: rgb(221, 221, 221);" d="M 248.288 297.224 L 243.495 444.324 L 57.679 444.324 C 98.396 427.946 241.844 413.608 248.288 297.224 Z"/>
    <path style="paint-order: fill; stroke: rgba(0, 0, 0, 0); fill: rgb(221, 221, 221);" d="M 291.67 338.381 L 265.698 290.047 L 245.212 303.445 L 239.156 444.324 L 324.937 444.324 C 255.163 433.084 246.887 395.217 291.67 338.381 Z"/>
  </g>
  <path style="fill: rgb(221, 221, 221);" transform="matrix(-0.289359, 0.347648, -0.350834, -0.29201, 465.246643, 257.114166)" d="M 132.576 6.925 L 191.424 6.925 L 185.826 82.755 A 104.985 104.985 0 0 1 217.451 95.854 L 267.112 38.276 L 308.724 79.888 L 251.146 129.549 A 104.985 104.985 0 0 1 264.245 161.174 L 340.075 155.576 L 340.075 214.424 L 264.245 208.826 A 104.985 104.985 0 0 1 251.146 240.451 L 308.724 290.112 L 267.112 331.724 L 217.451 274.146 A 104.985 104.985 0 0 1 185.826 287.245 L 191.424 363.075 L 132.576 363.075 L 138.174 287.245 A 104.985 104.985 0 0 1 106.549 274.146 L 56.888 331.724 L 15.276 290.112 L 72.854 240.451 A 104.985 104.985 0 0 1 59.755 208.826 L -16.075 214.424 L -16.075 155.576 L 59.755 161.174 A 104.985 104.985 0 0 1 72.854 129.549 L 15.276 79.888 L 56.888 38.276 L 106.549 95.854 A 104.985 104.985 0 0 1 138.174 82.755 Z M 162 124.685 A 60.315 60.315 0 0 0 162 245.315 A 60.315 60.315 0 0 0 162 124.685" bx:shape="cog 162 185 60.315 104.985 178.075 0.166 8 1@f926742f"/>
  <path d="M 253 416 m -65.889 0 a 65.889 66.377 0 1 0 131.778 0 a 65.889 66.377 0 1 0 -131.778 0 Z M 253 416 m -52.066 0 a 52.066 51.495 0 0 1 104.132 0 a 52.066 51.495 0 0 1 -104.132 0 Z" style="fill: rgb(221, 221, 221);" transform="matrix(0.812015, 0.583636, -0.583636, 0.812015, 243.39299, -295.870056)" bx:shape="ring 253 416 52.066 51.495 65.889 66.377 1@58338a79"/>
  <g transform="matrix(0.509093, 0, 0, 0.509093, -5.655532, 55.685802)" style="">
    <path d="M 426.634 -38.642 C 386.257 -40.11 346.168 8.657 319.644 84.693 C 241.275 64.075 178.123 69.677 156.734 103.697 C 151.721 111.535 149.145 120.821 148.774 131.05 L 176.477 132.057 C 176.683 126.388 177.968 121.868 180.218 118.125 C 190.519 101.718 227.681 95.788 274.933 103.182 C 286.563 104.962 298.782 107.626 311.231 110.794 C 304.389 134.731 298.834 160.937 294.845 188.556 C 271.256 204.358 249.758 220.853 230.863 237.565 C 194.679 196.022 175.426 157.562 176.358 131.929 L 148.653 130.922 C 148.653 130.922 148.653 130.922 148.653 130.922 C 147.421 164.812 170.159 210.061 210.77 256.453 C 167.147 299.785 141.433 343.274 140.201 377.163 L 167.906 378.17 C 168.833 352.662 190.706 315.573 229.562 276.757 C 247.198 294.674 267.319 312.682 289.707 329.907 C 291.676 357.866 295.314 384.407 300.525 408.782 C 287.997 411.164 275.871 412.822 264.262 413.88 C 216.592 417.947 179.955 409.458 170.746 392.464 C 168.642 388.687 167.823 383.845 168.029 378.174 L 140.325 377.167 C 140.325 377.167 140.325 377.167 140.325 377.167 C 139.949 387.52 141.845 396.967 146.269 405.272 C 165.137 440.634 227.595 450.678 307.01 435.671 C 328.079 513.191 364.404 564.487 404.658 565.95 C 445.034 567.418 485.123 518.652 511.648 442.615 C 590.017 463.233 653.168 457.631 674.557 423.611 C 679.569 415.773 682.146 406.488 682.523 396.135 C 683.754 362.247 661.016 316.997 620.405 270.603 C 664.029 227.272 689.743 183.783 690.975 149.894 C 691.351 139.541 689.456 130.095 685.032 121.789 C 666.161 86.429 603.706 76.385 524.29 91.391 C 503.337 14.123 466.885 -37.179 426.634 -38.642 Z M 337.935 118.799 C 353.796 123.942 370.113 130.211 386.404 137.219 C 376.281 141.91 366.15 146.849 356.001 152.28 C 345.855 157.587 335.944 163.273 326.283 168.968 C 329.528 151.562 333.373 134.798 337.935 118.799 Z M 468.196 180.05 C 484.618 190.272 500.161 200.708 514.576 211.474 C 515.522 229.894 515.716 248.535 515.035 267.268 C 514.359 285.876 512.812 304.452 510.658 322.636 C 495.502 332.328 479.362 341.736 462.364 350.744 C 445.749 359.518 428.916 367.421 411.987 374.579 C 395.617 366.333 379.282 357.102 363.343 347.269 C 346.921 337.045 331.377 326.61 316.964 315.843 C 316.016 297.422 315.823 278.782 316.504 260.051 C 317.18 241.442 318.726 222.865 320.88 204.681 C 336.036 194.989 352.178 185.582 369.173 176.573 C 385.789 167.8 402.623 159.897 419.552 152.738 C 435.918 161.107 452.258 170.216 468.196 180.05 Z M 453.491 139.657 C 470.382 133.609 487.236 128.545 503.557 124.448 C 506.945 140.737 509.682 157.866 511.651 175.582 C 502.303 169.196 492.708 162.8 482.851 156.767 C 473.119 150.737 463.248 145.071 453.491 139.657 Z M 581.512 269.437 C 569.168 280.464 555.457 291.442 540.511 302.25 C 541.41 291.177 542.194 279.853 542.611 268.392 C 543.032 256.809 543.201 245.339 542.988 234.101 C 557.119 245.721 569.997 257.665 581.512 269.437 Z M 505.003 358.465 C 501.758 375.869 497.913 392.635 493.352 408.633 C 477.491 403.491 461.173 397.222 444.882 390.212 C 455.005 385.521 465.136 380.583 475.285 375.152 C 485.436 369.722 495.341 364.158 505.003 358.465 Z M 249.775 257.995 C 262.118 246.968 275.829 235.99 290.776 225.182 C 289.877 236.254 289.092 247.578 288.675 259.04 C 288.254 270.623 288.085 282.093 288.299 293.33 C 274.167 281.71 261.289 269.767 249.775 257.995 Z M 319.635 351.85 C 328.983 358.236 338.579 364.632 348.436 370.665 C 358.169 376.695 367.914 382.356 377.67 387.769 C 360.78 393.819 343.927 398.882 327.606 402.979 C 324.341 386.695 321.604 369.566 319.635 351.85 Z M 471.127 469.03 C 450.781 511.974 425.157 539.301 405.652 538.592 C 386.146 537.883 362.449 508.763 345.399 464.46 C 341.188 453.696 337.51 441.963 334.093 429.869 C 358.698 423.729 384.379 415.407 410.761 404.891 C 436.19 417.168 461.078 427.204 485.053 434.985 C 480.758 447.046 476.114 458.477 471.127 469.03 Z M 651.072 409.183 C 640.773 425.59 603.609 431.521 556.357 424.127 C 544.728 422.346 532.51 419.682 520.061 416.514 C 526.902 392.578 532.456 366.372 536.446 338.752 C 560.035 322.95 581.534 306.456 600.428 289.744 C 636.613 331.287 655.863 369.747 654.932 395.379 C 654.606 400.92 653.319 405.563 651.072 409.183 Z M 567.029 113.428 C 614.698 109.361 651.335 117.85 660.546 134.844 C 662.648 138.622 663.468 143.463 663.262 149.133 C 662.335 174.643 640.46 211.731 601.603 250.546 C 583.968 232.63 563.848 214.623 541.46 197.397 C 539.489 169.437 535.853 142.898 530.642 118.522 C 543.294 116.144 555.425 114.364 567.029 113.428 Z M 485.887 62.97 C 490.099 73.735 493.777 85.469 497.193 97.563 C 472.588 103.703 446.907 112.024 420.526 122.541 C 395.097 110.265 370.209 100.229 346.233 92.447 C 350.528 80.386 355.173 68.955 360.163 58.277 C 380.509 15.334 406.133 -11.992 425.639 -11.283 C 445.14 -10.45 468.836 18.669 485.887 62.97 Z" style="fill: rgb(221, 221, 221); paint-order: fill; stroke: rgb(221, 221, 221); stroke-width: 11.7857px;"/>
    <polygon points="320.8,78.4 320.8,78.4 320.8,78.4 &#9;" style="stroke: url(#gradient-1); stroke-width: 0px; fill: rgb(221, 221, 221);"/>
    <circle cx="418.099" cy="262.347" r="58.389" style="stroke: url(#gradient-2); stroke-width: 0px; fill: rgb(221, 221, 221);"/>
    <polygon points="520.5,78.1 520.5,78.1 520.5,78.1 &#9;" style="stroke: url(#gradient-3); stroke-width: 0px; fill: rgb(221, 221, 221);"/>
  </g>
</svg>